<?xml version="1.0" encoding="utf-8"?>
<!-- Generator: Adobe Illustrator 19.0.1, SVG Export Plug-In . SVG Version: 6.00 Build 0)  -->
<!DOCTYPE svg PUBLIC "-//W3C//DTD SVG 1.1//EN" "http://www.w3.org/Graphics/SVG/1.1/DTD/svg11.dtd">
<svg version="1.1" id="Layer_1" xmlns="http://www.w3.org/2000/svg" xmlns:xlink="http://www.w3.org/1999/xlink" x="0px" y="0px"
	 width="150px" height="45px" viewBox="0 0 150 45" enable-background="new 0 0 150 45" xml:space="preserve">
<g id="XMLID_1_">
	<g id="XMLID_47_">
		<g id="XMLID_49_">
			<g id="XMLID_51_">
				<circle id="XMLID_24_" fill="#FFFFFF" cx="126.5" cy="2.8" r="1.6"/>
				<g id="XMLID_66_">
					<path id="XMLID_23_" fill="#FFFFFF" d="M92.5,9.6C92,9,91.1,8.4,89.9,7.8c-0.8-0.4-1.4-0.7-1.7-1c-0.3-0.3-0.5-0.7-0.5-1.1
						c0-0.4,0.2-0.8,0.5-1c0.4-0.3,0.8-0.4,1.4-0.4c1.2,0,2.3,0.3,3.3,1V2.3c-0.9-0.4-2.1-0.5-3.4-0.5c-1.6,0-2.8,0.4-3.8,1.1
						c-0.9,0.8-1.4,1.8-1.4,3.1c0,1.7,1.1,3.1,3.2,4.1c0.9,0.4,1.6,0.8,2,1.1c0.4,0.4,0.7,0.8,0.7,1.2c0,0.4-0.2,0.7-0.5,1
						c-0.4,0.3-0.9,0.5-1.6,0.5c-1.4,0-2.6-0.5-3.7-1.4v3.2c1,0.5,2.2,0.8,3.7,0.8c1.9,0,3.4-0.5,4.3-1.4c0.8-0.7,1.2-1.7,1.2-2.9
						C93.5,11.1,93.2,10.3,92.5,9.6z"/>
				</g>
				<g id="XMLID_64_">
					<path id="XMLID_22_" fill="#FFFFFF" d="M100.8,13.7c-0.3,0.2-0.7,0.3-1,0.3c-0.8,0-1.3-0.5-1.3-1.6V8.3h2.3V6h-2.3V3l-3.1,0.9
						V6h-1.6v2.3h1.6v4.6c0,2.3,1.1,3.4,3.3,3.4c0.9,0,1.6-0.1,2.1-0.4V13.7z"/>
				</g>
				<g id="XMLID_62_">
					<path id="XMLID_21_" fill="#FFFFFF" d="M111.9,6h-3.1v5.8c0,0.7-0.2,1.2-0.5,1.6c-0.3,0.4-0.8,0.6-1.3,0.6
						c-1.1,0-1.7-0.7-1.7-2.1V6h-3.1v6.1c0,2.8,1.2,4.3,3.5,4.3c1.3,0,2.3-0.6,3.1-1.8h0v1.5h3.1V6z"/>
				</g>
				<path id="XMLID_59_" fill="#FFFFFF" d="M123.4,1.2h-3.1v6h0c-0.5-0.9-1.4-1.4-2.7-1.4c-1.4,0-2.5,0.5-3.3,1.5
					c-0.9,1-1.3,2.4-1.3,4c0,1.7,0.4,3,1.3,3.9c0.8,0.8,1.7,1.2,2.9,1.2c1.4,0,2.4-0.5,3.1-1.6h0v1.4h3.1V1.2z M119.7,13.2
					c-0.4,0.5-0.9,0.7-1.5,0.7c-0.6,0-1.1-0.2-1.5-0.7c-0.4-0.5-0.6-1.2-0.6-2.1c0-0.9,0.2-1.7,0.6-2.2c0.4-0.6,0.9-0.8,1.6-0.8
					c0.6,0,1.1,0.2,1.5,0.6c0.4,0.4,0.6,1,0.6,1.6v0.8C120.4,12.1,120.1,12.7,119.7,13.2z"/>
				<g id="XMLID_57_">
					<rect id="XMLID_18_" x="125" y="6" fill="#FFFFFF" width="3.1" height="10.1"/>
				</g>
				<path id="XMLID_54_" fill="#FFFFFF" d="M138.9,7.3c-1-1-2.3-1.5-4.1-1.5c-1.7,0-3,0.5-4,1.4c-1,0.9-1.6,2.3-1.6,4
					c0,1.6,0.5,2.9,1.4,3.8c1,0.9,2.3,1.4,4,1.4c1.7,0,3.1-0.5,4.1-1.5c1-1,1.5-2.3,1.5-3.9C140.2,9.4,139.8,8.2,138.9,7.3z
					 M134.8,14c-1.6,0-2.3-1-2.3-2.9c0-0.9,0.2-1.7,0.6-2.2c0.4-0.5,1-0.7,1.7-0.7c1.5,0,2.3,0.9,2.3,2.8C137,13,136.3,14,134.8,14z
					"/>
				<g id="XMLID_52_">
					<path id="XMLID_15_" fill="#FFFFFF" d="M147.8,11.1c-0.4-0.4-1.1-0.8-2-1.1c-0.6-0.2-1-0.4-1.2-0.6c-0.2-0.2-0.3-0.4-0.3-0.7
						c0-0.6,0.4-0.8,1.2-0.8c0.9,0,1.7,0.2,2.5,0.7V6.2c-0.8-0.3-1.7-0.4-2.5-0.4c-1.3,0-2.3,0.3-3.1,0.9c-0.8,0.6-1.1,1.4-1.1,2.3
						c0,0.8,0.2,1.4,0.7,1.9c0.4,0.4,1,0.8,1.8,1.1c0.8,0.3,1.3,0.5,1.5,0.7c0.2,0.2,0.4,0.4,0.4,0.7c0,0.6-0.5,0.9-1.5,0.9
						c-0.9,0-1.9-0.3-2.9-0.9v2.5c0.9,0.3,1.9,0.5,2.9,0.5c1.4,0,2.6-0.3,3.4-1c0.7-0.6,1.1-1.4,1.1-2.3
						C148.5,12.3,148.3,11.6,147.8,11.1z"/>
				</g>
			</g>
			<path id="XMLID_14_" fill="#FFFFFF" d="M87.5,31.2c-0.1,1.1-1.1,1.5-1.9,1.8c-0.9,0.3-1.9,0.4-2.8,0.3c-0.7-0.1-1.6-0.4-2-1.1
				c-0.5-0.8,0.1-1.8,0.9-2.2c1.4-0.8,3.7-0.8,5.1,0.1C87.3,30.3,87.5,30.7,87.5,31.2z"/>
		</g>
		<path id="XMLID_13_" fill="#FFFFFF" d="M149.3,38.7c0.3-3.1-2-5.6-4.5-7.2c-0.4-0.3-0.9-0.5-1.4-0.8c-9.8-4.9-29.6-10.3-61.6-11.2
			c-8.2-0.2-56.8-0.4-78.6,5.7c-0.5,0.2-1.9,0.5-2.5,1.1C0.1,27,0.3,28,1,28.4c1.1,0.6,3,0.3,3.2,0.3c48.1-7.1,82.9-3.1,94.9-1.6
			c0.2,0,1.1,0.1,1.6,0.4c0.5,0.2,0.8,1.2-1.1,1.2c-1.7,0-7.1,0.1-8.8,0.8c-1.7,0.8-0.9,2.1-0.8,2.2c0.4,0.6,1.1,0.6,1.8,0.7
			c13,0.6,25.7,3,38,7.2c2.6,0.9,5.2,2.1,7.8,2.9c1.4,0.4,2.8,0.7,4.2,0.9c2.5,0.3,5.7-0.1,6.9-2.6
			C149.1,40.1,149.3,39.4,149.3,38.7z"/>
	</g>
	<path id="XMLID_45_" fill="#FFFFFF" d="M80.2,16c-0.4,0.2-0.9,0.3-1.5,0.3c-1.8,0-2.6-1-2.6-3v-6h-1.7V6h1.7V3.6
		c0.5-0.2,1.1-0.3,1.6-0.5v3h2.5v1.4h-2.5v5.7c0,0.7,0.1,1.2,0.3,1.4c0.2,0.3,0.6,0.4,1.2,0.4c0.4,0,0.7-0.1,1-0.3V16z"/>
	<path id="XMLID_43_" fill="#FFFFFF" d="M17.2,16.1h-1.7V6.6c0-0.7,0-1.7,0.1-2.7h0c-0.2,0.6-0.3,1.1-0.4,1.4l-4.8,10.9H9.6L4.7,5.3
		C4.6,5,4.4,4.5,4.3,3.9h0c0.1,0.6,0.1,1.5,0.1,2.8v9.5H2.7V2h2.2l4.3,9.9c0.3,0.7,0.5,1.3,0.6,1.7H10c0.3-0.8,0.5-1.4,0.7-1.7
		L15.1,2h2.1V16.1z"/>
	<path id="XMLID_40_" fill="#FFFFFF" d="M21.7,2.4c0,0.3-0.1,0.5-0.3,0.8c-0.2,0.2-0.5,0.3-0.8,0.3c-0.3,0-0.5-0.1-0.7-0.3
		c-0.2-0.2-0.3-0.5-0.3-0.8c0-0.3,0.1-0.5,0.3-0.7c0.2-0.2,0.5-0.3,0.7-0.3c0.3,0,0.5,0.1,0.8,0.3C21.6,1.9,21.7,2.1,21.7,2.4z
		 M21.5,16.1h-1.6V6h1.6V16.1z"/>
	<path id="XMLID_38_" fill="#FFFFFF" d="M30.7,15.7C30,16.1,29,16.4,28,16.4c-1.4,0-2.6-0.5-3.5-1.4c-0.9-0.9-1.3-2.1-1.3-3.6
		c0-1.7,0.5-3,1.4-4c1-1,2.2-1.5,3.8-1.5c0.9,0,1.7,0.2,2.3,0.5v1.7c-0.7-0.5-1.6-0.8-2.4-0.8c-1,0-1.9,0.4-2.5,1.1
		c-0.7,0.7-1,1.7-1,2.9c0,1.2,0.3,2.1,0.9,2.8c0.6,0.7,1.5,1,2.5,1c0.9,0,1.7-0.3,2.5-0.9V15.7z"/>
	<path id="XMLID_36_" fill="#FFFFFF" d="M38,7.7c-0.3-0.2-0.7-0.3-1.2-0.3c-0.7,0-1.2,0.3-1.7,0.9c-0.5,0.7-0.8,1.6-0.8,2.8v5.1
		h-1.6V6h1.6v2.1h0c0.2-0.7,0.6-1.3,1.1-1.7c0.5-0.4,1-0.6,1.5-0.6c0.4,0,0.7,0,1,0.1V7.7z"/>
	<path id="XMLID_33_" fill="#FFFFFF" d="M48.3,11c0,1.6-0.5,2.9-1.4,3.9c-0.9,1-2.1,1.5-3.7,1.5c-1.5,0-2.7-0.5-3.6-1.5
		c-0.9-0.9-1.3-2.2-1.3-3.7c0-1.8,0.5-3.1,1.5-4.1c0.9-0.9,2.1-1.3,3.7-1.3c1.5,0,2.7,0.5,3.5,1.4C47.9,8.1,48.3,9.4,48.3,11z
		 M46.7,11.1c0-1.3-0.3-2.3-0.9-3c-0.6-0.7-1.4-1-2.4-1c-1,0-1.8,0.3-2.4,1c-0.6,0.7-1,1.7-1,3c0,1.2,0.3,2.2,0.9,2.8
		c0.6,0.7,1.4,1,2.5,1c1.1,0,1.9-0.3,2.4-1C46.4,13.3,46.7,12.3,46.7,11.1z"/>
	<path id="XMLID_31_" fill="#FFFFFF" d="M55.9,13.4c0,0.8-0.3,1.5-0.9,2.1c-0.7,0.6-1.6,0.9-2.8,0.9c-1,0-1.8-0.2-2.5-0.6V14
		c0.8,0.6,1.7,1,2.6,1c1.3,0,1.9-0.5,1.9-1.4c0-0.4-0.1-0.7-0.4-1c-0.3-0.3-0.8-0.6-1.7-0.9c-0.8-0.4-1.5-0.8-1.8-1.1
		c-0.4-0.5-0.6-1.1-0.6-1.8c0-0.8,0.3-1.5,1-2.1c0.7-0.6,1.5-0.8,2.6-0.8c0.8,0,1.5,0.2,2.2,0.5v1.6c-0.7-0.5-1.4-0.7-2.3-0.7
		c-0.5,0-1,0.1-1.3,0.4c-0.3,0.3-0.5,0.6-0.5,1c0,0.4,0.1,0.8,0.4,1c0.2,0.2,0.8,0.5,1.5,0.8c0.9,0.4,1.5,0.7,1.9,1.1
		C55.7,12,55.9,12.7,55.9,13.4z"/>
	<path id="XMLID_28_" fill="#FFFFFF" d="M67.1,11c0,1.6-0.5,2.9-1.4,3.9c-0.9,1-2.1,1.5-3.7,1.5c-1.5,0-2.7-0.5-3.6-1.5
		c-0.9-0.9-1.3-2.2-1.3-3.7c0-1.8,0.5-3.1,1.5-4.1c0.9-0.9,2.1-1.3,3.7-1.3c1.5,0,2.7,0.5,3.5,1.4C66.6,8.1,67.1,9.4,67.1,11z
		 M65.4,11.1c0-1.3-0.3-2.3-0.9-3c-0.6-0.7-1.4-1-2.4-1c-1,0-1.8,0.3-2.4,1c-0.6,0.7-1,1.7-1,3c0,1.2,0.3,2.2,0.9,2.8
		c0.6,0.7,1.4,1,2.5,1c1.1,0,1.9-0.3,2.4-1C65.1,13.3,65.4,12.3,65.4,11.1z"/>
	<path id="XMLID_2_" fill="#FFFFFF" d="M73.8,2.6c-0.3-0.2-0.7-0.3-1.1-0.3C71.6,2.3,71,3,71,4.5V6h2.4v1.4H71v8.7h-1.6V7.4h-1.7V6
		h1.7V4.4c0-1.1,0.3-2,1-2.6C71,1.2,71.7,1,72.6,1c0.5,0,0.9,0.1,1.2,0.2V2.6z"/>
</g>
</svg>
